<svg xmlns="http://www.w3.org/2000/svg" width="580" height="811"><g><title>background</title></g><g><title>Layer 1</title><path id="svg_2" fill="none" stroke="#fff" stroke-width="30" d="m164.455994,556.521973l-8.463989,-400.892975l92.780991,-6.518997l34.074997,0.511993l0,11.529007l71.736023,0.768997l0.256989,-3.843002l68.406006,-6.916992l34.842987,0l-4.355011,167.811981l-18.446991,15.629028l18.19101,20.751984l-4.868011,161.151031l-59.438995,68.405945l-39.455994,-4.610962l0,-15.88501l-150.134003,-18.445984l0,15.627991l-35.126007,-5.074036z"/><path id="svg_3" fill="none" stroke="#fff" stroke-width="30" d="m202.879303,211.878769l126.188171,3.325882l17.803284,19.564056l-1.760742,94.494415l-13.303558,12.1297l-126.775116,-7.04306l-2.152039,-122.470993z"/><path id="svg_5" fill="none" stroke="#fff" stroke-width="30" d="m203.466217,387.955292l1.760757,114.841034l125.209976,14.281738l15.259979,-14.08609l0.97821,-84.516754l-18.390228,-20.933533l-124.818695,-9.586395z"/><line id="svg_6" x1="155.926" x2="193.306" y1="155.339" y2="155.339" fill="none" stroke="#fff" stroke-linecap="null" stroke-linejoin="null" stroke-width="30"/><line id="svg_7" x1="193.293" x2="193.293" y1="156.317" y2="169.626" fill="none" stroke="#fff" stroke-linecap="null" stroke-linejoin="null" stroke-width="30"/><line id="svg_8" x1="193.684" x2="354.501" y1="169.62" y2="172.164" fill="none" stroke="#fff" stroke-linecap="null" stroke-linejoin="null" stroke-width="30"/><line id="svg_9" x1="354.501" x2="354.501" y1="172.164" y2="161.99" fill="none" stroke="#fff" stroke-linecap="null" stroke-linejoin="null" stroke-width="30"/><line id="svg_10" x1="192.902" x2="283.092" y1="169.62" y2="161.208" fill="none" stroke="#fff" stroke-linecap="null" stroke-linejoin="null" stroke-width="30"/><line id="svg_11" x1="290.135" x2="290.135" y1="214.031" y2="303.047" fill="none" stroke="#fff" stroke-linecap="null" stroke-linejoin="null" stroke-width="30"/><line id="svg_12" x1="289.939" x2="344.719" y1="303.047" y2="306.178" fill="none" stroke="#fff" stroke-linecap="null" stroke-linejoin="null" stroke-width="30"/><line id="svg_13" x1="204.64" x2="289.744" y1="334.154" y2="302.656" fill="none" stroke="#fff" stroke-linecap="null" stroke-linejoin="null" stroke-width="30"/><line id="svg_14" x1="288.961" x2="288.961" y1="394.411" y2="448.409" fill="none" stroke="#fff" stroke-linecap="null" stroke-linejoin="null" stroke-width="30"/><line id="svg_15" x1="289.157" x2="345.697" y1="448.408" y2="453.886" fill="none" stroke="#fff" stroke-linecap="null" stroke-linejoin="null" stroke-width="30"/><line id="svg_16" x1="204.836" x2="289.157" y1="502.601" y2="448.017" fill="none" stroke="#fff" stroke-linecap="null" stroke-linejoin="null" stroke-width="30"/><line id="svg_17" x1="199.358" x2="218.922" y1="562.075" y2="547.794" fill="none" stroke="#fff" stroke-linecap="null" stroke-linejoin="null" stroke-width="30"/><line id="svg_18" x1="388.738" x2="391.868" y1="585.552" y2="397.913" fill="none" stroke="#fff" stroke-linecap="null" stroke-linejoin="null" stroke-width="30"/><line id="svg_19" x1="392.846" x2="371.521" y1="397.542" y2="374.26" fill="none" stroke="#fff" stroke-linecap="null" stroke-linejoin="null" stroke-width="30"/><line id="svg_20" x1="371.521" x2="393.238" y1="374.26" y2="356.066" fill="none" stroke="#fff" stroke-linecap="null" stroke-linejoin="null" stroke-width="30"/><line id="svg_22" x1="354.717" x2="395.761" y1="157.652" y2="157.652" fill="none" stroke="#fff" stroke-linecap="null" stroke-linejoin="null" stroke-width="30"/><line id="svg_23" x1="395.49" x2="392.771" y1="158.468" y2="354.989" fill="none" fill-opacity="null" stroke="#fff" stroke-linecap="null" stroke-linejoin="null" stroke-width="30"/><line id="svg_24" x1="457.735" x2="394.402" y1="151.4" y2="158.468" fill="none" fill-opacity="null" stroke="#fff" stroke-linecap="null" stroke-linejoin="null" stroke-width="30"/><line id="svg_25" x1="454.201" x2="392.5" y1="319.11" y2="354.989" fill="none" fill-opacity="null" stroke="#fff" stroke-linecap="null" stroke-linejoin="null" stroke-width="30"/><line id="svg_26" x1="392.771" x2="454.201" y1="397.392" y2="354.989" fill="none" fill-opacity="null" stroke="#fff" stroke-linecap="null" stroke-linejoin="null" stroke-width="30"/><line id="svg_27" x1="371.842" x2="435.99" y1="374.56" y2="334.875" fill="none" fill-opacity="null" stroke="#fff" stroke-linecap="null" stroke-linejoin="null" stroke-width="30"/></g></svg>